<svg width="21" height="21" viewBox="0 0 21 21" fill="none" xmlns="http://www.w3.org/2000/svg">
<path d="M5.25 16.6249H3.5C1.575 16.6249 0 15.0499 0 13.1249V12.2499C0 10.3249 1.575 8.74988 3.5 8.74988H5.25C5.775 8.74988 6.125 9.09988 6.125 9.62488V15.7499C6.125 16.2749 5.775 16.6249 5.25 16.6249ZM3.5 10.4999C2.5375 10.4999 1.75 11.2874 1.75 12.2499V13.1249C1.75 14.0874 2.5375 14.8749 3.5 14.8749H4.375V10.4999H3.5Z" fill="black"/>
<path d="M17.5 16.6249H15.75C15.225 16.6249 14.875 16.2749 14.875 15.7499V9.62488C14.875 9.09988 15.225 8.74988 15.75 8.74988H17.5C19.425 8.74988 21 10.3249 21 12.2499V13.1249C21 15.0499 19.425 16.6249 17.5 16.6249ZM16.625 14.8749H17.5C18.4625 14.8749 19.25 14.0874 19.25 13.1249V12.2499C19.25 11.2874 18.4625 10.4999 17.5 10.4999H16.625V14.8749Z" fill="black"/>
<path d="M18.2875 10.5875C18.2 10.5875 18.2 10.5875 18.1125 10.5875C17.675 10.5 17.325 10.0625 17.4125 9.625C17.4125 9.3625 17.5 9.1 17.5 8.75C17.5 4.9 14.35 1.75 10.5 1.75C6.65 1.75 3.5 4.9 3.5 8.75C3.5 9.1 3.5 9.3625 3.5875 9.625C3.675 10.0625 3.325 10.5875 2.8875 10.5875C2.45 10.675 1.925 10.325 1.925 9.8875C1.75 9.5375 1.75 9.1875 1.75 8.75C1.75 3.9375 5.6875 0 10.5 0C15.3125 0 19.25 3.9375 19.25 8.75C19.25 9.1875 19.25 9.5375 19.1625 9.8875C19.075 10.325 18.725 10.5875 18.2875 10.5875Z" fill="black"/>
<path d="M10.5 21C8.575 21 7.875 19.425 7.875 18.375C7.875 17.325 8.575 15.75 10.5 15.75C12.425 15.75 13.125 17.325 13.125 18.375C13.125 18.55 13.125 18.725 13.0375 18.9C14.9625 18.375 16.275 17.15 16.975 15.4C17.15 14.9625 17.675 14.7 18.1125 14.875C18.55 15.05 18.8125 15.575 18.6375 16.0125C17.7625 18.2875 15.575 21 10.5 21ZM10.5 17.5C9.8 17.5 9.625 18.025 9.625 18.375C9.625 18.725 9.8 19.25 10.5 19.25C11.2 19.25 11.375 18.725 11.375 18.375C11.375 18.025 11.2 17.5 10.5 17.5Z" fill="black"/>
</svg>
