<svg width="20" height="20" viewBox="0 0 20 20" fill="none" xmlns="http://www.w3.org/2000/svg">
<path fill-rule="evenodd" clip-rule="evenodd" d="M3.25 10C3.25 9.58578 3.58579 9.25 4 9.25L14.06 9.24999L9.99549 5.55495C9.689 5.27632 9.66641 4.80198 9.94504 4.49549C10.2237 4.189 10.698 4.16641 11.0045 4.44504L16.5045 9.44504C16.6609 9.58718 16.75 9.78868 16.75 9.99999C16.75 10.2113 16.6609 10.4128 16.5045 10.5549L11.0045 15.5549C10.698 15.8336 10.2237 15.811 9.94505 15.5045C9.66642 15.198 9.689 14.7237 9.9955 14.445L14.06 10.75L4 10.75C3.58579 10.75 3.25 10.4142 3.25 10Z" fill="#DAE3D8"/>
</svg>
