<svg width="24" height="24" viewBox="0 0 24 24" fill="none" xmlns="http://www.w3.org/2000/svg">
<path fill-rule="evenodd" clip-rule="evenodd" d="M12 3.90002C12.497 3.90002 12.9 4.30297 12.9 4.80002L12.9 16.8721L17.334 11.9946C17.6684 11.6268 18.2376 11.5997 18.6054 11.9341C18.9732 12.2684 19.0003 12.8376 18.6659 13.2054L12.6659 19.8054C12.4954 19.9931 12.2536 20.1 12 20.1C11.7464 20.1 11.5046 19.9931 11.334 19.8054L5.33404 13.2054C4.99968 12.8376 5.02678 12.2684 5.39458 11.9341C5.76237 11.5997 6.33157 11.6268 6.66593 11.9946L11.1 16.8721L11.1 4.80002C11.1 4.30297 11.5029 3.90002 12 3.90002Z" fill="white"/>
</svg>
