<svg width="20" height="20" viewBox="0 0 20 20" fill="none" xmlns="http://www.w3.org/2000/svg">
<path d="M17.4993 10.3537V9.16699C17.4993 7.17787 16.7091 5.27021 15.3026 3.86369C13.896 2.45717 11.9884 1.66699 9.99927 1.66699C8.01014 1.66699 6.10249 2.45717 4.69597 3.86369C3.28944 5.27021 2.49927 7.17787 2.49927 9.16699V10.3537C1.62523 10.7385 0.909934 11.412 0.473118 12.2612C0.0363026 13.1105 -0.0955155 14.084 0.0997318 15.0189C0.294979 15.9537 0.80544 16.7931 1.54566 17.3965C2.28588 18 3.21092 18.3308 4.16593 18.3337H5.8326V10.0003H4.16593V9.16699C4.16593 7.6199 4.78052 6.13616 5.87448 5.0422C6.96844 3.94824 8.45217 3.33366 9.99927 3.33366C11.5464 3.33366 13.0301 3.94824 14.1241 5.0422C15.218 6.13616 15.8326 7.6199 15.8326 9.16699V10.0003H14.1659V16.667H10.8326V18.3337H15.8326C16.7876 18.3308 17.7127 18 18.4529 17.3965C19.1931 16.7931 19.7036 15.9537 19.8988 15.0189C20.0941 14.084 19.9622 13.1105 19.5254 12.2612C19.0886 11.412 18.3733 10.7385 17.4993 10.3537ZM4.16593 16.667C3.50289 16.667 2.86701 16.4036 2.39817 15.9348C1.92933 15.4659 1.66593 14.83 1.66593 14.167C1.66593 13.504 1.92933 12.8681 2.39817 12.3992C2.86701 11.9304 3.50289 11.667 4.16593 11.667V16.667ZM15.8326 16.667V11.667C16.4956 11.667 17.1315 11.9304 17.6004 12.3992C18.0692 12.8681 18.3326 13.504 18.3326 14.167C18.3326 14.83 18.0692 15.4659 17.6004 15.9348C17.1315 16.4036 16.4956 16.667 15.8326 16.667Z" fill="#373735"/>
</svg>
