<svg width="20" height="24" viewBox="0 0 20 24" fill="none" xmlns="http://www.w3.org/2000/svg">
<path fill-rule="evenodd" clip-rule="evenodd" d="M1.25 11.9994C1.25 11.5024 1.58579 11.0994 2 11.0994L18 11.0994C18.4142 11.0994 18.75 11.5024 18.75 11.9994C18.75 12.4965 18.4142 12.8994 18 12.8994L2 12.8994C1.58579 12.8994 1.25 12.4965 1.25 11.9994Z" fill="#373735"/>
<path fill-rule="evenodd" clip-rule="evenodd" d="M1.25 5.99941C1.25 5.50236 1.58579 5.09941 2 5.09941L18 5.09941C18.4142 5.09941 18.75 5.50236 18.75 5.99941C18.75 6.49647 18.4142 6.89941 18 6.89941L2 6.89941C1.58579 6.89941 1.25 6.49647 1.25 5.99941Z" fill="#373735"/>
<path fill-rule="evenodd" clip-rule="evenodd" d="M1.25 17.9994C1.25 17.5024 1.58579 17.0994 2 17.0994L18 17.0994C18.4142 17.0994 18.75 17.5024 18.75 17.9994C18.75 18.4965 18.4142 18.8994 18 18.8994L2 18.8994C1.58579 18.8994 1.25 18.4965 1.25 17.9994Z" fill="#373735"/>
</svg>
