<svg width="18" height="18" viewBox="0 0 18 18" fill="none" xmlns="http://www.w3.org/2000/svg">
<g clip-path="url(#clip0_639_295)">
<path fill-rule="evenodd" clip-rule="evenodd" d="M7.8 1.34998C8.6649 0.19676 10.5 0.80847 10.5 2.24999V15.841C10.5 17.2904 8.64847 17.897 7.79085 16.7287L4.87017 12.75H3C1.75736 12.75 0.75 11.7427 0.75 10.5V7.49998C0.75 6.25734 1.75736 5.24998 3 5.24998H4.875L7.8 1.34998ZM9 2.24998L6.075 6.14998C5.79172 6.52769 5.34713 6.74998 4.875 6.74998H3C2.58579 6.74998 2.25 7.08577 2.25 7.49998V10.5C2.25 10.9142 2.58579 11.25 3 11.25H4.87017C5.34773 11.25 5.79676 11.4774 6.07936 11.8624L9 15.841V2.24998Z" fill="white"/>
<path d="M12.1603 3.13084C12.082 2.67338 12.433 2.25 12.8971 2.25C13.2476 2.25 13.5486 2.496 13.6098 2.84118C13.8181 4.0151 14.25 6.72349 14.25 9C14.25 11.2765 13.8181 13.9849 13.6098 15.1588C13.5486 15.504 13.2476 15.75 12.8971 15.75C12.433 15.75 12.082 15.3266 12.1603 14.8692C12.3805 13.5805 12.75 11.1055 12.75 9C12.75 6.89448 12.3805 4.41952 12.1603 3.13084Z" fill="white"/>
<path d="M16.0575 3.75C15.551 3.75 15.1802 4.27048 15.2975 4.76323C15.5069 5.6431 15.75 7.07843 15.75 9C15.75 10.9216 15.5069 12.3569 15.2975 13.2368C15.1802 13.7295 15.551 14.25 16.0575 14.25C16.3287 14.25 16.5731 14.0958 16.6576 13.8382C16.8776 13.1677 17.25 11.6425 17.25 9C17.25 6.35754 16.8776 4.83229 16.6576 4.16185C16.5731 3.90417 16.3287 3.75 16.0575 3.75Z" fill="white"/>
</g>
<defs>
<clipPath id="clip0_639_295">
<rect width="18" height="18" fill="white"/>
</clipPath>
</defs>
</svg>
