<svg width="18" height="18" viewBox="0 0 18 18" fill="none" xmlns="http://www.w3.org/2000/svg">
<g clip-path="url(#clip0_639_292)">
<path fill-rule="evenodd" clip-rule="evenodd" d="M10.5 2.24999C10.5 0.80847 8.6649 0.19676 7.8 1.34998L4.875 5.24998H3C1.75736 5.24998 0.75 6.25734 0.75 7.49998V10.5C0.75 11.7427 1.75736 12.75 3 12.75H4.87017L7.79085 16.7287C8.64847 17.897 10.5 17.2904 10.5 15.841V2.24999ZM6.075 6.14998L9 2.24998V15.841L6.07936 11.8624C5.79676 11.4774 5.34773 11.25 4.87017 11.25H3C2.58579 11.25 2.25 10.9142 2.25 10.5V7.49998C2.25 7.08577 2.58579 6.74998 3 6.74998H4.875C5.34713 6.74998 5.79172 6.52769 6.075 6.14998Z" fill="white"/>
<path d="M15.9697 6.42817C16.2626 6.13527 16.7375 6.13528 17.0303 6.42817C17.3232 6.72106 17.3232 7.19593 17.0303 7.48882L15.5702 8.94889L17.0303 10.409C17.3232 10.7019 17.3232 11.1768 17.0303 11.4696C16.7375 11.7625 16.2626 11.7625 15.9697 11.4696L14.5096 10.0095L13.0496 11.4696C12.7566 11.7625 12.2818 11.7625 11.9889 11.4696C11.696 11.1767 11.696 10.7019 11.9889 10.409L13.4489 8.94889L11.9889 7.48884C11.696 7.19594 11.696 6.72107 11.9889 6.42818C12.2818 6.13528 12.7566 6.13528 13.0496 6.42818L14.5096 7.88824L15.9697 6.42817Z" fill="white"/>
</g>
<defs>
<clipPath id="clip0_639_292">
<rect width="18" height="18" fill="white"/>
</clipPath>
</defs>
</svg>
